<?xml version="1.0" encoding="utf-8"?>
<!-- Generator: Adobe Illustrator 25.0.0, SVG Export Plug-In . SVG Version: 6.00 Build 0)  -->
<svg version="1.1" id="Layer_1" xmlns="http://www.w3.org/2000/svg" xmlns:xlink="http://www.w3.org/1999/xlink" x="0px" y="0px"
	 viewBox="0 0 1190.3 331.3" style="enable-background:new 0 0 1190.3 331.3;" xml:space="preserve">
<style type="text/css">
	.st0{fill:#EEEEEE;}
	.st1{fill:#AFAFAF;}
	.st2{fill:#E5E5E5;}
	.st3{fill:url(#SVGID_1_);}
	.st4{fill:url(#SVGID_2_);}
	.st5{fill:url(#SVGID_3_);}
	.st6{fill:url(#SVGID_4_);}
	.st7{fill:url(#SVGID_5_);}
	.st8{fill:url(#SVGID_6_);}
	.st9{fill:url(#SVGID_7_);}
	.st10{fill:url(#SVGID_8_);}
	.st11{fill:url(#SVGID_9_);}
	.st12{fill:url(#SVGID_10_);}
</style>
<g>
	<path class="st0" d="M193.3,113.6l-12.4,1.9c0-5.8-3.5-13.6-12.9-13.6c-9,0-16.1,7.6-16.1,20.3c0,14.4,8.6,20.3,18,20.3
		c8.1,0,13.5-5.3,16.1-8.9l8,8.4c-2.8,4-10.4,12.3-24.4,12.3c-18.6,0-31.2-12.2-31.2-32c0-19.6,12.4-32,29.5-32
		C186.6,90.3,193.3,103.6,193.3,113.6z"/>
	<path class="st0" d="M199.2,86.5h13v67.1h-13V86.5z"/>
	<path class="st0" d="M227,102.5c-4.7,0-8.4-3.3-8.4-8.1c0-4.7,3.7-8.1,8.4-8.1c4.7,0,8.5,3.4,8.5,8.1
		C235.5,99.2,231.7,102.5,227,102.5z M220.5,108.8l13-0.4v45.2h-13V108.8z"/>
	<path class="st0" d="M281.6,124c0,2-0.3,3.3-0.3,3.3l-11.5,0.7c0.1-0.2,0.2-1,0.2-2c0-3.8-2.5-7.1-7.4-7.1c-5.9,0-9.9,4.8-9.9,12.1
		c0,7.6,3.9,12.6,11.6,12.6c7,0,10.9-3.6,12.3-5.2l6.4,8.2c-2.9,3.6-9.4,7.7-19.5,7.7c-15,0-23.9-9.5-23.9-22.8
		c0-13.8,9.5-23.2,23.3-23.2C274.6,108.2,281.6,115.2,281.6,124z"/>
	<path class="st0" d="M305,134.9h-4.1v18.7h-13V86.5h13V125h5.2l12-16.2H333L316,130.2l18.8,23.4h-15.8L305,134.9z"/>
	<path class="st0" d="M397.3,131.2c0,13.5-9.4,23-23.6,23c-14.2,0-23.7-9.5-23.7-23s9.4-23,23.7-23
		C387.9,108.2,397.3,117.7,397.3,131.2z M384.1,131.2c0-7.2-4-12.4-10.4-12.4c-6.5,0-10.4,5.1-10.4,12.4c0,7.3,4,12.4,10.4,12.4
		C380.1,143.5,384.1,138.5,384.1,131.2z"/>
	<path class="st0" d="M434,109.5l-3.4,12.5c-1.5-1-3.1-1.6-5.1-1.6c-4.9,0-9.2,4-9.2,11.5v21.7h-13v-44.8l10.2-0.4
		c0.9,2.9,1.6,8,1.6,9.9h0.4c1.7-5.7,5.2-10.1,12-10.1C429.9,108.2,432,108.7,434,109.5z"/>
	<path class="st0" d="M485.6,151c0,0-4.8,3.2-13.4,3.2c-11.8,0-18-6.4-18-19.1v-16.4h-6.8v-9.9h7.4V96.1l12.5-0.5v13.1h15.8v9.9
		h-15.8v15.9c0,6,2.3,8.6,7.3,8.6c4.6,0,7.2-2.4,7.2-2.4L485.6,151z"/>
	<path class="st0" d="M533,153.3c0,0-2.8,0.9-6.4,0.9c-6.2,0-9.5-2.4-10.4-7.1c-1.4,2.8-5.1,7.1-14.4,7.1c-9.7,0-15.2-4.8-15.2-12.4
		c0-11.1,11.7-13.9,28.4-14.2h0.6v-2c0-4.6-2.7-7.6-8.2-7.6c-4.9,0-7.7,2-7.7,5.2c0,0.7,0.1,1.2,0.4,1.7l-11.4,1.9
		c0,0-0.6-1.9-0.6-4.4c0-8.5,7.5-14.2,19.9-14.2c13.2,0,20.3,6.7,20.3,18v14.6c0,2.1,0.8,2.9,2.5,2.9c0.6,0,1.1-0.1,1.6-0.3
		L533,153.3z M515.6,137.8v-3.6h-0.6c-10.7,0.3-15.8,1.8-15.8,6c0,2.9,2.4,4.5,6.3,4.5C511.8,144.6,515.6,141.4,515.6,137.8z"/>
	<path class="st0" d="M585,131.2c0,14.6-8.8,23-20.5,23c-6.4,0-10.7-2.6-13.3-6.2v25h-13v-64.2l10.3-0.4c1,2.8,1.6,7.6,1.5,8.8h0.3
		c2.4-5.2,7-9,14.9-9C577.3,108.2,585,117.8,585,131.2z M571.8,131.2c0-7.3-4-12.1-10.3-12.1c-6.3,0-10.4,5.3-10.4,10.5v3
		c0,4.9,3.7,10.5,10.6,10.5C567.9,143.3,571.8,138.5,571.8,131.2z"/>
	<path class="st0" d="M624.9,108.8h14.1v9.9h-14.1v35H612v-35h-6.7v-9.9h6.7v-3.3C612,93.2,620,86,631.1,86c6.3,0,10.3,2.1,10.6,2.3
		l-3.8,10.5c-0.5-0.3-2.4-1.8-5.2-1.8c-4.8,0-7.8,3.3-7.8,8.4V108.8z"/>
	<path class="st0" d="M686.3,131.2c0,13.5-9.4,23-23.6,23c-14.2,0-23.7-9.5-23.7-23s9.4-23,23.7-23
		C676.8,108.2,686.3,117.7,686.3,131.2z M673,131.2c0-7.2-4-12.4-10.4-12.4c-6.5,0-10.5,5.1-10.5,12.4c0,7.3,4,12.4,10.5,12.4
		C669.1,143.5,673,138.5,673,131.2z"/>
	<path class="st0" d="M723,109.5l-3.4,12.5c-1.5-1-3.1-1.6-5.1-1.6c-4.9,0-9.2,4-9.2,11.5v21.7h-13v-44.8l10.2-0.4
		c1,2.9,1.6,8,1.6,9.9h0.4c1.7-5.7,5.2-10.1,12-10.1C718.9,108.2,721,108.7,723,109.5z"/>
	<path class="st0" d="M765.5,122.8c0-3.6-2.7-5.9-7.2-5.9c-4.3,0-6.7,2-6.7,4.7c0,9,26.2,1.9,26.3,19.2c0.1,8.1-7.3,13.4-19.6,13.4
		c-13.6,0-19.8-5.7-20.9-6.6l6.1-7.9c1,0.9,7.6,5.4,14.3,5.4c4.6,0,6.7-1.3,6.7-3.5c0-7.2-25.1-2.9-25.1-19.2
		c0-8.7,7.6-14.2,19.2-14.2c10.8,0,18.4,5.2,18.4,12.5c0,1.8-0.4,3-0.4,3l-11.5,0.7C765.4,124.1,765.5,123.5,765.5,122.8z"/>
	<path class="st0" d="M828.9,131.2c0,13.5-9.4,23-23.6,23c-14.2,0-23.7-9.5-23.7-23s9.4-23,23.7-23
		C819.5,108.2,828.9,117.7,828.9,131.2z M815.7,131.2c0-7.2-4-12.4-10.4-12.4c-6.5,0-10.5,5.1-10.5,12.4c0,7.3,4,12.4,10.5,12.4
		C811.7,143.5,815.7,138.5,815.7,131.2z"/>
	<path class="st0" d="M877.3,108.8v44.8l-10.5,0.4c-0.8-2.9-1.4-7.5-1.4-8.9h-0.2c-2.2,5.2-6.4,9.1-13.9,9.1
		c-11.1,0-16.8-7.7-16.8-17.9v-27.6h13.1V134c0,5.3,2.7,8.9,7.9,8.9c5.9,0,8.8-5.8,8.8-11v-23.2H877.3z"/>
	<path class="st0" d="M928.9,126.1v27.6h-13v-25.3c0-5.3-2.7-8.9-7.9-8.9c-6.6,0-9.5,5.8-9.5,11v23.2h-13v-44.8l10.2-0.4
		c1,2.9,1.6,7.5,1.6,9.4h0.4c2.2-5.3,6.6-9.6,14.5-9.6C923.3,108.2,928.9,115.9,928.9,126.1z"/>
	<path class="st0" d="M981.4,86.5v67.1l-10.5,0.4c-0.7-2.8-1.3-7.6-1.2-8.8h-0.3c-2.5,5.3-7.2,9-14.9,9c-12.2,0-19.9-9.6-19.9-22.8
		c0-14.8,9.1-23.2,20.5-23.2c6.5,0,10.7,2.5,13.3,6.1V86.5H981.4z M968.4,132.7v-3c0-4.9-3.7-10.5-10.6-10.5c-6.1,0-10,4.8-10,12.3
		c0,7.1,4,11.9,10.3,11.9C964.3,143.3,968.4,137.9,968.4,132.7z"/>
</g>
<g>
	<path class="st0" d="M22.4,324.6c-8.2-3.7-11.8-13.2-8.2-21.4l20.6-45.8l-30-6.8l91.1-89.9l-6.5,127.8l-25.1-17.9l-20.6,45.8
		C40.2,324.6,30.6,328.2,22.4,324.6z"/>
	<g>
		<path class="st1" d="M100.9,149.6c-2.7-1.2-3.9-4.4-2.7-7.1l4.4-9.9c1.2-2.7,4.4-3.9,7.1-2.7c2.7,1.2,3.9,4.4,2.7,7.1l-4.4,9.9
			C106.8,149.6,103.6,150.8,100.9,149.6z"/>
		<path class="st1" d="M117.9,167.6c-1.1-2.8,0.3-5.9,3.1-7l10.1-3.8c2.8-1.1,5.9,0.3,7,3.1s-0.3,5.9-3.1,7l-10.1,3.8
			C122.1,171.8,119,170.4,117.9,167.6z"/>
		<path class="st1" d="M129.8,204l-9.9-4.4c-2.7-1.2-3.9-4.4-2.7-7.1c1.2-2.7,4.4-3.9,7.1-2.7l9.9,4.4c2.7,1.2,3.9,4.4,2.7,7.1
			C135.7,204,132.5,205.2,129.8,204z"/>
		<path class="st1" d="M69.2,145.8l-3.8-10.1c-1.1-2.8,0.3-5.9,3.1-7c2.8-1.1,5.9,0.3,7,3.1l3.8,10.1c1.1,2.8-0.3,5.9-3.1,7
			C73.3,149.9,70.2,148.5,69.2,145.8z"/>
		<path class="st1" d="M51,168.6l-9.9-4.4c-2.7-1.2-3.9-4.4-2.7-7.1c1.2-2.7,4.4-3.9,7.1-2.7l9.9,4.4c2.7,1.2,3.9,4.4,2.7,7.1
			C56.9,168.6,53.7,169.8,51,168.6z"/>
	</g>
	<path class="st2" d="M22.4,324.6c8.2,3.7,17.7,0,21.4-8.2l20.6-45.8l25.1,17.9l6.5-127.8L22.4,324.6z"/>
</g>
<path class="st0" d="M1138.1,15.6H53.1C24.3,15.6,0.9,39,0.9,67.8l0,0v36.3c0,2.7,2.2,5,5,5l0,0c2.7,0,5-2.2,5-5V67.8
	c0-23.3,18.9-42.2,42.2-42.2h1085.1c23.3,0,42.2,18.9,42.2,42.2v120.7c0,23.3-18.9,42.2-42.2,42.2H144.8c-2.7,0-4.9,2.2-5,4.9l0,0
	c0,2.7,2.2,5,5,5h993.3c28.8,0,52.2-23.4,52.2-52.2c0,0,0,0,0,0V67.8C1190.3,39,1166.9,15.6,1138.1,15.6
	C1138.1,15.6,1138.1,15.6,1138.1,15.6z"/>
<g>
	
		<linearGradient id="SVGID_1_" gradientUnits="userSpaceOnUse" x1="483.8976" y1="378.7478" x2="483.8976" y2="371.2014" gradientTransform="matrix(5.2245 0 0 -5.2245 -1457.449 2087.1633)">
		<stop  offset="0" style="stop-color:#00EFD1"/>
		<stop  offset="1" style="stop-color:#00ACEA"/>
	</linearGradient>
	<path class="st3" d="M1070.7,108.4c-2.8,0-5,2.2-5,5v29.4c0,2.8,2.2,5,5,5c2.8,0,5-2.2,5-5v-29.4
		C1075.7,110.6,1073.5,108.4,1070.7,108.4z"/>
	
		<linearGradient id="SVGID_2_" gradientUnits="userSpaceOnUse" x1="480.9238" y1="381.7216" x2="480.9238" y2="368.2276" gradientTransform="matrix(5.2245 0 0 -5.2245 -1457.449 2087.1633)">
		<stop  offset="0" style="stop-color:#00EFD1"/>
		<stop  offset="1" style="stop-color:#00ACEA"/>
	</linearGradient>
	<path class="st4" d="M1055.1,92.9c-2.8,0-5,2.2-5,5v60.5c0,2.8,2.2,5,5,5s5-2.2,5-5V97.9C1060.1,95,1058,92.9,1055.1,92.9z"/>
	
		<linearGradient id="SVGID_3_" gradientUnits="userSpaceOnUse" x1="477.918" y1="384.5035" x2="477.918" y2="365.4456" gradientTransform="matrix(5.2245 0 0 -5.2245 -1457.449 2087.1633)">
		<stop  offset="0" style="stop-color:#00EFD1"/>
		<stop  offset="1" style="stop-color:#00ACEA"/>
	</linearGradient>
	<path class="st5" d="M1039.4,78.3c-2.8,0-5,2.2-5,5v89.5c0,2.8,2.2,5,5,5c2.8,0,5-2.2,5-5V83.3
		C1044.4,80.5,1042.3,78.3,1039.4,78.3z"/>
	
		<linearGradient id="SVGID_4_" gradientUnits="userSpaceOnUse" x1="474.9442" y1="381.7216" x2="474.9442" y2="368.2276" gradientTransform="matrix(5.2245 0 0 -5.2245 -1457.449 2087.1633)">
		<stop  offset="0" style="stop-color:#00EFD1"/>
		<stop  offset="1" style="stop-color:#00ACEA"/>
	</linearGradient>
	<path class="st6" d="M1023.9,92.9c-2.8,0-5,2.2-5,5v60.5c0,2.8,2.2,5,5,5c2.8,0,5-2.2,5-5V97.9C1028.9,95,1026.7,92.9,1023.9,92.9z
		"/>
	
		<linearGradient id="SVGID_5_" gradientUnits="userSpaceOnUse" x1="471.9384" y1="378.9396" x2="471.9384" y2="371.0095" gradientTransform="matrix(5.2245 0 0 -5.2245 -1457.449 2087.1633)">
		<stop  offset="0" style="stop-color:#00EFD1"/>
		<stop  offset="1" style="stop-color:#00ACEA"/>
	</linearGradient>
	<path class="st7" d="M1008.2,107.4c-2.8,0-5,2.2-5,5v31.4c0,2.8,2.2,5,5,5s5-2.2,5-5v-31.4C1013.2,109.6,1011,107.4,1008.2,107.4z"
		/>
	
		<linearGradient id="SVGID_6_" gradientUnits="userSpaceOnUse" x1="492.8829" y1="384.5035" x2="492.8829" y2="365.4456" gradientTransform="matrix(5.2245 0 0 -5.2245 -1457.449 2087.1633)">
		<stop  offset="0" style="stop-color:#00EFD1"/>
		<stop  offset="1" style="stop-color:#00ACEA"/>
	</linearGradient>
	<path class="st8" d="M1117.6,78.3c-2.8,0-5,2.2-5,5v89.5c0,2.8,2.2,5,5,5c2.8,0,5-2.2,5-5V83.3
		C1122.6,80.5,1120.5,78.3,1117.6,78.3z"/>
	
		<linearGradient id="SVGID_7_" gradientUnits="userSpaceOnUse" x1="489.8771" y1="381.7216" x2="489.8771" y2="368.2276" gradientTransform="matrix(5.2245 0 0 -5.2245 -1457.449 2087.1633)">
		<stop  offset="0" style="stop-color:#00EFD1"/>
		<stop  offset="1" style="stop-color:#00ACEA"/>
	</linearGradient>
	<path class="st9" d="M1101.9,92.9c-2.8,0-5,2.2-5,5v60.5c0,2.8,2.2,5,5,5c2.8,0,5-2.2,5-5V97.9C1106.9,95,1104.7,92.9,1101.9,92.9z
		"/>
	
		<linearGradient id="SVGID_8_" gradientUnits="userSpaceOnUse" x1="486.9034" y1="380.2187" x2="486.9034" y2="369.7304" gradientTransform="matrix(5.2245 0 0 -5.2245 -1457.449 2087.1633)">
		<stop  offset="0" style="stop-color:#00EFD1"/>
		<stop  offset="1" style="stop-color:#00ACEA"/>
	</linearGradient>
	<path class="st10" d="M1086.4,100.7c-2.8,0-5,2.2-5,5v44.8c0,2.8,2.2,5,5,5c2.8,0,5-2.2,5-5v-44.8
		C1091.4,102.9,1089.2,100.7,1086.4,100.7z"/>
	
		<linearGradient id="SVGID_9_" gradientUnits="userSpaceOnUse" x1="495.8567" y1="381.7216" x2="495.8567" y2="368.2276" gradientTransform="matrix(5.2245 0 0 -5.2245 -1457.449 2087.1633)">
		<stop  offset="0" style="stop-color:#00EFD1"/>
		<stop  offset="1" style="stop-color:#00ACEA"/>
	</linearGradient>
	<path class="st11" d="M1133.1,92.9c-2.8,0-5,2.2-5,5v60.5c0,2.8,2.2,5,5,5s5-2.2,5-5V97.9C1138.2,95,1136,92.9,1133.1,92.9z"/>
	
		<linearGradient id="SVGID_10_" gradientUnits="userSpaceOnUse" x1="498.8625" y1="378.9396" x2="498.8625" y2="371.0095" gradientTransform="matrix(5.2245 0 0 -5.2245 -1457.449 2087.1633)">
		<stop  offset="0" style="stop-color:#00EFD1"/>
		<stop  offset="1" style="stop-color:#00ACEA"/>
	</linearGradient>
	<path class="st12" d="M1148.9,107.4c-2.8,0-5,2.2-5,5v31.4c0,2.8,2.2,5,5,5c2.8,0,5-2.2,5-5v-31.4
		C1153.9,109.6,1151.7,107.4,1148.9,107.4z"/>
</g>
</svg>
